<?xml version="1.0" encoding="utf-8"?>
<!-- Generator: Adobe Illustrator 27.7.0, SVG Export Plug-In . SVG Version: 6.00 Build 0)  -->
<svg version="1.1" id="Layer_1" xmlns="http://www.w3.org/2000/svg" xmlns:xlink="http://www.w3.org/1999/xlink" x="0px" y="0px"
	 viewBox="0 0 300 300" style="enable-background:new 0 0 300 300;" xml:space="preserve">
<style type="text/css">
	
		.st0{clip-path:url(#SVGID_00000038377292662031181390000017007303277989416123_);fill:url(#SVGID_00000130638174093820015170000003031732659836702365_);}
	.st1{fill:#01355A;}
	.st2{fill:#17A3A3;}
	
		.st3{clip-path:url(#SVGID_00000132791706635200827850000004640955168652211592_);fill:url(#SVGID_00000107581950325403364710000017361929153050897048_);}
	.st4{fill:#FFFFFF;}
</style>
<g>
	<g>
		<g>
			<g>
				<path class="st1" d="M40.3,75.4H16.2v15.1h20.3c13.3,0,18.9,6.1,18.9,18.2v25.1H3V149h68.6v-41.2C71.7,87,62.1,75.4,40.3,75.4"
					/>
				<path class="st1" d="M33.7,57c4.9,0,8.9-4.1,8.9-8.9c0-4.9-3.9-9-8.9-9c-4.8,0-8.9,4.1-8.9,9C24.8,52.9,28.9,57,33.7,57"/>
				<path class="st1" d="M176.5,57c4.9,0,8.9-4.1,8.9-8.9c0-4.9-3.9-9-8.9-9c-4.8,0-8.9,4.1-8.9,9C167.6,52.9,171.7,57,176.5,57"/>
				<path class="st1" d="M256.1,39.1c-4.8,0-8.9,4.1-8.9,9c0,4.8,4.1,8.9,8.9,8.9c4.9,0,8.9-4.1,8.9-8.9
					C264.9,43.2,261,39.1,256.1,39.1"/>
				<path class="st1" d="M191.8,133.9h-34.5v-23.7c0-13.1,5.6-19.7,19.1-19.7h15.4V133.9z M248,133.9h-39.8V75.4h-35.3
					c-22.2,0-31.9,12.3-31.9,33.4v25.1h-24.8c-7.9,0-11.5-3.3-11.5-11.8V39.4H88.4v80.8c0,20.1,6.7,28.8,28.6,28.8h147.1V75.4H248
					V133.9z"/>
				<rect x="280.7" y="39.4" class="st1" width="16.3" height="109.6"/>
				<path class="st1" d="M59.9,206h-28v54.9h12.6v-44.6h13.4c8.6,0,12,3.5,12,12v32.5h12.6v-32.2C82.6,213,75.6,206,59.9,206"/>
				<path class="st1" d="M98.6,202.3v3.7H90v10.1h8.6v44.8h12.6v-44.8h17.1V206h-17.1v-3.4c0-4.8,1.7-6.5,6.5-6.5h10.6v-10h-13.6
					C103.3,186.1,98.6,190.8,98.6,202.3"/>
				<path class="st1" d="M171,236.3v14.6h-17.6c-4.8,0-7.3-2.5-7.3-7.3c0-4.8,2.5-7.3,7.3-7.3H171z M162.2,206h-25.7v10.1H162
					c6.6,0,8.8,2.3,8.8,8.9v1.3h-20.3c-10.8,0-17.3,6.5-17.3,17.3c0,10.8,6.5,17.3,17.3,17.3h33v-33.6
					C183.5,212.2,177.3,206,162.2,206"/>
				<path class="st1" d="M212.2,191.8h-12.6V206h-8.6v10.1h8.6v28.6c0,11.5,4.7,16.2,16.2,16.2h15.1v-10.1h-12.1
					c-4.8,0-6.5-1.7-6.5-6.5v-28.2h18.6V206h-18.6V191.8z"/>
				<path class="st1" d="M274.3,206h-14.8v-19.9h-12.6v74.8h12.6v-44.6h12.8c8.5,0,12,3.5,12,12v32.5H297v-32.2
					C297,213,290,206,274.3,206"/>
				<rect x="3" y="186.1" class="st1" width="12.7" height="74.4"/>
				<path class="st1" d="M289,167.3v-3.4c0-1.6,0.6-2.2,2.3-2.2h3.5v-4.9h-4.2c-4.4,0-6.7,2.4-6.7,6.9v3.6h-3.2v4.9H297v-4.9H289z"
					/>
			</g>
		</g>
	</g>
</g>
</svg>
